<svg width="112" height="95" viewBox="0 0 112 95" fill="none" xmlns="http://www.w3.org/2000/svg">
<path d="M21 95C19.5833 95 18.2917 94.5633 17.125 93.69C15.9583 92.8133 15.1667 91.6667 14.75 90.25L0.749995 39.75C0.333328 38.5833 0.519995 37.5 1.30999 36.5C2.10333 35.5 3.16666 35 4.49999 35H29.75L51.75 2.25C52.1667 1.58333 52.75 1.04167 53.5 0.625C54.25 0.208333 55.0417 0 55.875 0C56.7083 0 57.5 0.208333 58.25 0.625C59 1.04167 59.5833 1.58333 60 2.25L82 35H107.5C108.833 35 109.897 35.5 110.69 36.5C111.48 37.5 111.667 38.5833 111.25 39.75L97.25 90.25C96.8333 91.6667 96.0417 92.8133 94.875 93.69C93.7083 94.5633 92.4167 95 91 95H21ZM41.875 35H70L55.875 14L41.875 35ZM56 75C58.75 75 61.105 74.0217 63.065 72.065C65.0217 70.105 66 67.75 66 65C66 62.25 65.0217 59.895 63.065 57.935C61.105 55.9783 58.75 55 56 55C53.25 55 50.8967 55.9783 48.94 57.935C46.98 59.895 46 62.25 46 65C46 67.75 46.98 70.105 48.94 72.065C50.8967 74.0217 53.25 75 56 75ZM23.5 85H88.5L99.5 45H12.5L23.5 85Z" fill="#D183D7"/>
</svg>
